<?xml version="1.0" encoding="utf-8"?>
<!-- Generator: Adobe Illustrator 26.0.3, SVG Export Plug-In . SVG Version: 6.00 Build 0)  -->
<svg version="1.1" id="Layer_1" xmlns="http://www.w3.org/2000/svg" xmlns:xlink="http://www.w3.org/1999/xlink" x="0px" y="0px"
	 viewBox="0 0 713 150" style="enable-background:new 0 0 713 150;" xml:space="preserve">
<style type="text/css">
	.st0{fill:#FFD71D;}
	.st1{fill:#F7A802;}
</style>
<path d="M299.6,44.6V59h-10v27.3c0,5.9,0.1,9.3,0.5,10.3c0.6,1.7,1.8,2.6,3.7,2.6c1.4,0,3.3-0.6,5.9-1.7l1.3,13.9
	c-3.4,1.8-7.3,2.7-11.6,2.7c-3.8,0-6.8-0.9-9-2.7c-2.3-1.8-3.8-4.4-4.6-7.7c-0.6-2.5-0.9-7.5-0.9-15.1V59H268V44.6h6.8V31.1
	l14.8-10.5v24H299.6z"/>
<path d="M324,112.5h-14.8V44.6h13.6v9.7c2.3-4.5,4.5-7.5,6.3-9c1.9-1.5,4-2.2,6.4-2.2c3.4,0,6.6,1.1,9.7,3.4l-4.6,15.6
	c-2.4-2-4.7-2.9-6.9-2.9c-2,0-3.8,0.8-5.4,2.3c-1.6,1.5-2.7,4.3-3.4,8.2c-0.7,4-1,11.3-1,21.9L324,112.5L324,112.5z"/>
<path d="M388.3,112.5v-10.2c-2,3.7-4.7,6.6-8,8.6c-3.3,2.1-6.8,3.1-10.4,3.1c-3.7,0-6.9-1-9.8-2.9c-2.9-1.9-5.1-4.7-6.5-8.2
	c-1.4-3.5-2.1-8.7-2.1-15.4v-43h14.8v31.2c0,8.9,0.2,14.6,0.7,17s1.4,4.3,3,5.6c1.5,1.3,3.4,2,5.5,2c2.5,0,4.7-0.9,6.8-2.6
	c2.1-1.7,3.4-3.9,4.1-6.6c0.7-2.7,1-8.7,1-17.9V44.6H402v67.9H388.3z"/>
<path d="M465.7,64.7l-14.5,3.2c-1.1-7.1-4.4-10.7-10.1-10.7c-3.6,0-6.6,1.5-8.8,4.6c-2.2,3.1-3.3,8.2-3.3,15.5
	c0,8.1,1.1,13.7,3.3,17.1c2.2,3.3,5.2,5,8.9,5c2.8,0,5.1-1,6.9-2.8c1.8-1.9,3.1-5.2,3.8-10.1l14.5,3c-3,16.4-11.6,24.6-25.8,24.6
	c-9.1,0-15.8-3.5-20.2-10.4c-4.4-6.9-6.6-15.2-6.6-25c0-11.6,2.5-20.5,7.5-26.6c5-6.1,11.5-9.1,19.5-9.1c6.5,0,11.8,1.7,16,5.2
	C461,51.7,463.9,57.2,465.7,64.7z"/>
<path d="M476.4,112.5V18.7h14.8v49.5l17.2-23.6h18.2l-19,24.8l20.4,43h-15.8l-14.1-30.6l-6.7,8.8v21.8H476.4L476.4,112.5z"/>
<path d="M535.5,44.6h13.6v9.3c2.4-3.6,5.1-6.3,8-8.2c2.9-1.8,6-2.7,9.4-2.7c3.6,0,6.7,0.9,9.3,2.7c2.6,1.8,4.8,4.5,6.4,8.1
	c2.5-3.6,5.1-6.3,8-8.1c2.8-1.8,5.9-2.7,9-2.7c3.8,0,7.1,0.9,9.8,2.7c2.7,1.8,4.8,4.4,6.3,7.8c1.4,3.4,2.1,8.6,2.1,15.5v43.4h-14.8
	V73.7c0-6.8-0.6-11.3-1.8-13.5c-1.2-2.2-3.2-3.4-6-3.4c-3.3,0-6,1.6-8,4.7c-2,3.1-3,9.3-3,18.4v32.6h-14.8V75.3
	c0-7.4-0.4-12.1-1.2-14.3c-1.1-2.8-3.2-4.2-6.4-4.2c-2.2,0-4.2,0.7-6,2.2c-1.8,1.4-3.2,3.6-4,6.4c-0.8,2.8-1.2,7.5-1.2,14.2v33
	h-14.8L535.5,44.6L535.5,44.6z"/>
<path d="M632.1,35.4V18.8h14.8v16.6H632.1z M632.1,112.5V44.6h14.8v67.9H632.1z"/>
<path d="M712.5,112.5h-14.8V77.8c0-7-0.3-11.6-0.8-13.9c-0.5-2.3-1.6-4.1-3.1-5.3c-1.5-1.2-3.2-1.8-5.1-1.8c-2.5,0-4.7,0.8-6.7,2.4
	c-2,1.6-3.4,3.8-4.2,6.6c-0.8,2.8-1.2,8.1-1.2,15.9v30.8h-14.8V44.6h13.7v9.9c2.4-3.8,5.2-6.7,8.2-8.6c3-1.9,6.4-2.9,10.1-2.9
	c4.3,0,7.9,1.1,10.9,3.4c3,2.2,5,5.1,6.1,8.6c1.1,3.5,1.7,8.6,1.7,15.3L712.5,112.5L712.5,112.5z"/>
<path d="M603.8,134.8V132l10.1,0v8.8c-1.5,1.2-3.1,2.2-4.8,2.8c-1.6,0.6-3.3,0.9-5.1,0.9c-2.3,0-4.5-0.5-6.4-1.5
	c-1.9-1-3.3-2.4-4.3-4.3c-1-1.9-1.5-4-1.5-6.3c0-2.3,0.5-4.5,1.4-6.5c1-2,2.4-3.5,4.2-4.5c1.8-1,3.9-1.5,6.3-1.5
	c1.7,0,3.3,0.3,4.7,0.8s2.5,1.3,3.3,2.3c0.8,1,1.4,2.3,1.8,3.9l-2.8,0.8c-0.4-1.2-0.8-2.2-1.3-2.9c-0.5-0.7-1.3-1.2-2.3-1.7
	c-1-0.4-2.1-0.6-3.3-0.6c-1.4,0-2.7,0.2-3.7,0.7c-1,0.4-1.9,1-2.5,1.7c-0.6,0.7-1.1,1.5-1.5,2.3c-0.6,1.5-0.9,3.1-0.9,4.8
	c0,2.1,0.4,3.9,1.1,5.3c0.7,1.4,1.8,2.5,3.2,3.2c1.4,0.7,2.9,1,4.4,1c1.4,0,2.7-0.3,4-0.8c1.3-0.5,2.3-1.1,2.9-1.7v-4.4L603.8,134.8
	L603.8,134.8z"/>
<path d="M618.5,144.1v-23.7H629c2.1,0,3.7,0.2,4.8,0.6c1.1,0.4,2,1.2,2.6,2.3c0.7,1.1,1,2.3,1,3.6c0,1.7-0.5,3.1-1.6,4.3
	c-1.1,1.2-2.8,1.9-5.1,2.2c0.8,0.4,1.5,0.8,1.9,1.2c0.9,0.8,1.8,1.9,2.6,3.2l4.1,6.5h-4l-3.1-4.9c-0.9-1.4-1.7-2.5-2.3-3.3
	c-0.6-0.8-1.1-1.3-1.6-1.6c-0.5-0.3-1-0.5-1.4-0.6c-0.4-0.1-0.9-0.1-1.7-0.1h-3.6v10.5H618.5z M621.6,130.9h6.8
	c1.4,0,2.6-0.1,3.4-0.4c0.8-0.3,1.4-0.8,1.8-1.4c0.4-0.7,0.6-1.4,0.6-2.1c0-1.1-0.4-2-1.2-2.8c-0.8-0.7-2.1-1.1-3.9-1.1h-7.5
	L621.6,130.9L621.6,130.9z"/>
<path d="M641.4,132.6c0-3.9,1.1-7,3.2-9.3c2.1-2.2,4.8-3.3,8.2-3.3c2.2,0,4.2,0.5,5.9,1.6c1.8,1,3.1,2.5,4,4.4
	c0.9,1.9,1.4,4,1.4,6.4c0,2.4-0.5,4.6-1.5,6.5c-1,1.9-2.3,3.3-4.1,4.3c-1.8,1-3.7,1.5-5.8,1.5c-2.2,0-4.2-0.5-6-1.6
	c-1.8-1.1-3.1-2.5-4-4.4C641.9,136.6,641.4,134.6,641.4,132.6z M644.7,132.6c0,2.9,0.8,5.1,2.3,6.8c1.5,1.6,3.5,2.5,5.8,2.5
	c2.4,0,4.3-0.8,5.8-2.5c1.5-1.7,2.3-4,2.3-7.1c0-1.9-0.3-3.6-1-5.1c-0.7-1.4-1.6-2.6-2.9-3.4c-1.3-0.8-2.7-1.2-4.2-1.2
	c-2.2,0-4.1,0.8-5.7,2.3C645.5,126.5,644.7,129,644.7,132.6z"/>
<path d="M683.8,120.4h3.1v13.7c0,2.4-0.3,4.3-0.8,5.7c-0.5,1.4-1.5,2.5-2.9,3.4c-1.4,0.9-3.3,1.3-5.5,1.3c-2.2,0-4-0.4-5.5-1.2
	c-1.4-0.8-2.4-1.9-3-3.3c-0.6-1.4-0.9-3.4-0.9-6v-13.7h3.1v13.7c0,2.1,0.2,3.6,0.6,4.6c0.4,1,1,1.7,2,2.3c0.9,0.5,2.1,0.8,3.4,0.8
	c2.3,0,4-0.5,4.9-1.6c1-1,1.5-3.1,1.5-6L683.8,120.4L683.8,120.4z"/>
<path d="M692.1,144.1v-23.7h9c1.6,0,2.8,0.1,3.6,0.2c1.2,0.2,2.1,0.6,2.9,1.1c0.8,0.6,1.4,1.3,1.9,2.3c0.5,1,0.7,2.1,0.7,3.2
	c0,2-0.6,3.7-1.9,5.1c-1.3,1.4-3.6,2.1-7,2.1h-6.1v9.7H692.1L692.1,144.1z M695.3,131.7h6.1c2,0,3.5-0.4,4.3-1.1
	c0.9-0.8,1.3-1.8,1.3-3.2c0-1-0.3-1.8-0.8-2.5c-0.5-0.7-1.2-1.2-2-1.4c-0.5-0.1-1.5-0.2-2.9-0.2h-6.1V131.7z"/>
<g>
	<path class="st0" d="M8.5,149.9c63.3,0,153.8,0,153.8,0s-30.8-16.8-61.2-72.8c-10.7-19.7-9-26.7-18-13.6c-7,10.1-20.9,31.3-41,55.9
		c-5.4,6.5-9.9,13-20.8,16.7c-11.2,3.8-21.3,4-21.3,10.4C0,150.5,4.3,149.9,8.5,149.9z"/>
	<path class="st0" d="M311.7,143.8l-20-8.3c-7.4-3.1-13.7-8.2-18.3-14.7L242,75.8c-1.5-2.2-4.7-2.6-6.7-0.8l-11.9,10.7
		c-1.6,1.4-4,1.2-5.3-0.5L153.6,1.4c-1.5-2-4.6-1.9-6,0.2l-44.1,62.3c-1.5,2.1-1.4,4.9,0.2,6.9c24.5,31.1,49,48.4,95,65.2
		c38.1,13.9,68.3,14,111.8,13.9C313.9,149.9,314.8,145.2,311.7,143.8z"/>
	<path class="st1" d="M240.4,125.7c1.1-0.7-2.6-6.6-5.3-11.5c-5.5-10-4.8-6.5,1.4-19.7c3.2-6.8,4.6-13.4,3.8-20.1
		c-1.6-0.8-3.6-0.6-5.1,0.7l-11.9,10.7c-1.6,1.4-4,1.2-5.3-0.5l-8-10.3l0,0c0,0,0.9,16,11,28.3S238.2,127,240.4,125.7z"/>
	<path class="st1" d="M153.1,70.9c-10.3-7.6-7.6-7.3,2.5-14.2c10.1-6.8,6.2-9-1.1-27.8c-7.2-18.7-3.8-28.7-3.7-28.9l0,0
		c-1.2,0-2.4,0.5-3.2,1.6l-44.1,62.3c-1.5,2.1-1.4,4.9,0.2,6.9c5.7,7.2,11.4,13.7,17.4,19.6l0,0c13.6-1.7,35.4,1,52,2.2
		C189.5,93.8,163.4,78.4,153.1,70.9z"/>
	<path class="st1" d="M72.3,108.3c4.1-10.8,7.6-9.4,9.9-7.1c2.3,2.3,7.6,4.8,6.9-4.8c-0.5-6.7,0.4-27.6,0.9-39.6
		c-1.6-0.4-3.5,1.6-6.9,6.6c-7,10.1-20.9,31.3-41,55.9c-5.4,6.5-9.9,13-20.8,16.7c-11.2,3.8-21.3,4-21.3,10.4c0,4.2,4.3,3.6,8.5,3.6
		c15.2,0,31.9,0,48.6,0C57.3,134.1,68.6,118.2,72.3,108.3z"/>
</g>
</svg>
